# xmcd CD database file
#
# Track frame offsets:
#	150
#	16817
#	34062
#	48566
#	66630
#	87445
#	114369
#	134847
#	156704
#	171667
#	192300
#	210742
#	228924
#	247960
#	267762
#	287139
#	309392
#
# Disc length: 4351 seconds
#
# Revision: 0
# Processed by: cddbd v1.5.2PL0 Copyright (c) Steve Scherf et al.
# Submitted via: CDex 1.70beta2
#
DISCID=0310fd11
DTITLE=Bløf - Helder
DYEAR=1900
DGENRE=Nederlands
TTITLE0=Laten we gaan dan
TTITLE1=Zeven nachten
TTITLE2=Duizend keer
TTITLE3=Liefs uit London
TTITLE4=Blik op oneindig
TTITLE5=Op handen
TTITLE6=Wat waar is en wat niet
TTITLE7=Anders
TTITLE8=Alles moet weg
TTITLE9=Rijden door de nacht
TTITLE10=Neer
TTITLE11=Lieveling
TTITLE12=Kom dichterbij
TTITLE13=Dit lied
TTITLE14=Taxi voor mijn ogen
TTITLE15=Helder
TTITLE16=Aan de kust
EXTD=
EXTT0=
EXTT1=
EXTT2=
EXTT3=
EXTT4=
EXTT5=
EXTT6=
EXTT7=
EXTT8=
EXTT9=
EXTT10=
EXTT11=
EXTT12=
EXTT13=
EXTT14=
EXTT15=
EXTT16=
PLAYORDER=
